<svg xmlns="http://www.w3.org/2000/svg" width="87.202" height="87.201" viewBox="0 0 87.202 87.201">
  <path id="Subtraction_1" data-name="Subtraction 1" d="M-1854.492-15.882h0a43.443,43.443,0,0,1-29.722-11.713,43.325,43.325,0,0,1-10.075-14.08,43.453,43.453,0,0,1-3.763-16.285,43.456,43.456,0,0,1,2.618-16.508,43.329,43.329,0,0,1,9.068-14.749A43.28,43.28,0,0,1-1871.577-99.6a43.642,43.642,0,0,1,8.405-2.608,43.926,43.926,0,0,1,8.7-.872,43.447,43.447,0,0,1,29.725,11.713,43.325,43.325,0,0,1,10.075,14.08A43.454,43.454,0,0,1-1810.909-61a43.456,43.456,0,0,1-2.618,16.508,43.331,43.331,0,0,1-9.069,14.749,43.276,43.276,0,0,1-14.792,10.385,43.646,43.646,0,0,1-8.405,2.608A43.937,43.937,0,0,1-1854.492-15.882Zm-.125-72.413h0a28.374,28.374,0,0,0-11.167,2.272,28.25,28.25,0,0,0-9.656,6.78l-.207.221a28.28,28.28,0,0,0-5.92,9.628,28.367,28.367,0,0,0-1.709,10.776,28.367,28.367,0,0,0,2.457,10.631,28.283,28.283,0,0,0,6.577,9.191,28.362,28.362,0,0,0,19.4,7.646,28.372,28.372,0,0,0,11.165-2.272,28.243,28.243,0,0,0,9.656-6.779l.207-.221a28.281,28.281,0,0,0,5.919-9.627,28.364,28.364,0,0,0,1.709-10.776,28.37,28.37,0,0,0-2.457-10.631,28.283,28.283,0,0,0-6.577-9.191,28.358,28.358,0,0,0-19.4-7.647Z" transform="translate(1898.083 103.083)" fill="#531f90"/>
</svg>
