<svg xmlns="http://www.w3.org/2000/svg" width="111.875" height="134.199" viewBox="0 0 111.875 134.199">
  <g id="idea" transform="translate(-35.966)">
    <g id="Group_4" data-name="Group 4" transform="translate(35.966)">
      <g id="Group_3" data-name="Group 3">
        <path id="Path_7" data-name="Path 7" d="M139.841,93.2A34.564,34.564,0,0,0,117,153.658c5.462,5.462,4.966,17.132,4.842,17.256a2.056,2.056,0,0,0,.621,1.614,2.29,2.29,0,0,0,1.49.621h31.657a2.056,2.056,0,0,0,1.49-.621,2.36,2.36,0,0,0,.621-1.614c0-.124-.621-11.794,4.842-17.256l.372-.372A34.459,34.459,0,0,0,139.841,93.2ZM159.7,150.43c-.124.124-.372.372-.372.5-4.842,5.214-5.711,13.78-5.835,17.877H126.061c-.124-4.1-.993-13.035-6.207-18.373a30.229,30.229,0,1,1,39.85,0Z" transform="translate(-83.801 -64.275)" fill="rgba(255,196,0,0.96)"/>
        <path id="Path_8" data-name="Path 8" d="M211.439,121.6a2.11,2.11,0,0,0,0,4.221,22.6,22.6,0,0,1,22.594,22.594,2.11,2.11,0,1,0,4.221,0A26.7,26.7,0,0,0,211.439,121.6Z" transform="translate(-155.524 -83.86)" fill="rgba(255,196,0,0.96)"/>
        <path id="Path_9" data-name="Path 9" d="M187.7,358.4h-27.56a5.214,5.214,0,1,0,0,10.428h27.436a5.354,5.354,0,0,0,5.338-5.214A5.245,5.245,0,0,0,187.7,358.4Zm0,6.083h-27.56a.979.979,0,0,1-.993-.993.914.914,0,0,1,.993-.993h27.436a.979.979,0,0,1,.993.993A.885.885,0,0,1,187.7,364.483Z" transform="translate(-118.008 -247.168)" fill="rgba(255,196,0,0.96)"/>
        <path id="Path_10" data-name="Path 10" d="M192.709,398.8H173.343a5.214,5.214,0,0,0,0,10.428h19.366a5.245,5.245,0,0,0,5.214-5.214A5.166,5.166,0,0,0,192.709,398.8Zm0,6.083H173.343a.979.979,0,0,1-.993-.993.914.914,0,0,1,.993-.993h19.366a.993.993,0,1,1,0,1.986Z" transform="translate(-127.111 -275.029)" fill="rgba(255,196,0,0.96)"/>
        <path id="Path_11" data-name="Path 11" d="M211.439,18.621a2.092,2.092,0,0,0,2.11-2.11V2.11a2.11,2.11,0,1,0-4.221,0v14.4A2.175,2.175,0,0,0,211.439,18.621Z" transform="translate(-155.524)" fill="rgba(255,196,0,0.96)"/>
        <path id="Path_12" data-name="Path 12" d="M304.367,33.513a2,2,0,0,0-2.855.5l-7.945,11.918a2.045,2.045,0,0,0,.5,2.979,2,2,0,0,0,1.117.372,1.981,1.981,0,0,0,1.738-.993l7.945-11.918A1.924,1.924,0,0,0,304.367,33.513Z" transform="translate(-213.319 -22.836)" fill="rgba(255,196,0,0.96)"/>
        <path id="Path_13" data-name="Path 13" d="M112.936,47.263a2,2,0,0,0,1.117-.372,2.175,2.175,0,0,0,.621-2.979l-7.7-12.042a2.152,2.152,0,0,0-3.6,2.359l7.7,12.042A2.06,2.06,0,0,0,112.936,47.263Z" transform="translate(-82.222 -21.317)" fill="rgba(255,196,0,0.96)"/>
        <path id="Path_14" data-name="Path 14" d="M51.658,110.341,39.12,103.513a2.186,2.186,0,0,0-2.855.869,1.982,1.982,0,0,0,.869,2.855l12.538,6.828a2.922,2.922,0,0,0,.993.248,2.048,2.048,0,0,0,1.862-1.117A2.186,2.186,0,0,0,51.658,110.341Z" transform="translate(-35.966 -71.236)" fill="rgba(255,196,0,0.96)"/>
        <path id="Path_15" data-name="Path 15" d="M358.829,104.382a2.186,2.186,0,0,0-2.855-.869l-12.663,6.828a2.186,2.186,0,0,0-.869,2.855,2.048,2.048,0,0,0,1.862,1.117,2.339,2.339,0,0,0,.993-.248l12.663-6.828A2.186,2.186,0,0,0,358.829,104.382Z" transform="translate(-247.174 -71.236)" fill="rgba(255,196,0,0.96)"/>
      </g>
    </g>
  </g>
</svg>
