<svg xmlns="http://www.w3.org/2000/svg" width="228" height="187.127" viewBox="0 0 228 187.127">
  <g id="ipad" transform="translate(0 -43.224)">
    <path id="Path_16" data-name="Path 16" d="M150.049,58.329l121.589-.516v82.353l-66.968.284v14.817h67.484a14.6,14.6,0,0,0,14.588-14.589V57.813a14.6,14.6,0,0,0-14.588-14.589H150.049a14.6,14.6,0,0,0-14.588,14.589V83.748h14.751Z" transform="translate(-71.415)" fill="#ffc60b"/>
    <path id="Path_17" data-name="Path 17" d="M371.821,287.593H281.842v17.254H364.1a12.488,12.488,0,0,0,12.487-12.49A4.764,4.764,0,0,0,371.821,287.593Z" transform="translate(-148.586 -128.83)" fill="#ffc60b"/>
    <path id="Path_18" data-name="Path 18" d="M148.019,152.894H94.976a15.719,15.719,0,0,0-15.7,15.7v21.831H87.88a18.757,18.757,0,0,1,6.5,1.22V168.6a.6.6,0,0,1,.6-.6h53.043a.6.6,0,0,1,.6.6V242.22H106.777v21.351h41.242a15.719,15.719,0,0,0,15.7-15.7V168.6A15.72,15.72,0,0,0,148.019,152.894ZM121.5,256.669a4.895,4.895,0,0,1-4.344-2.722,4.816,4.816,0,0,1-.59-2.216,4.934,4.934,0,0,1,9.868,0,4.814,4.814,0,0,1-.59,2.216A4.9,4.9,0,0,1,121.5,256.669Z" transform="translate(-41.793 -57.818)" fill="#ffc60b"/>
    <path id="Path_19" data-name="Path 19" d="M46.088,252.245H9.455A9.468,9.468,0,0,0,0,261.7V331.09a9.465,9.465,0,0,0,9.455,9.456H46.087a9.465,9.465,0,0,0,9.456-9.456V261.7A9.467,9.467,0,0,0,46.088,252.245Zm-34.76,11.328H44.215v59.979H11.328Zm16.446,72.378a4.061,4.061,0,1,1,2.67-1.069A3.956,3.956,0,0,1,27.775,335.951Z" transform="translate(0 -110.195)" fill="#ffc60b"/>
  </g>
</svg>
