<svg xmlns="http://www.w3.org/2000/svg" width="192" height="192.001" viewBox="0 0 192 192.001">
  <g id="rocket" transform="translate(-0.001 0)">
    <g id="Group_6" data-name="Group 6" transform="translate(94.347 90.157)">
      <g id="Group_5" data-name="Group 5">
        <path id="Path_20" data-name="Path 20" d="M257.99,241.518a3.751,3.751,0,1,0,0,5.3A3.75,3.75,0,0,0,257.99,241.518Z" transform="translate(-251.587 -240.418)" fill="#ffc60b"/>
      </g>
    </g>
    <g id="Group_8" data-name="Group 8" transform="translate(116.478 38.031)">
      <g id="Group_7" data-name="Group 7">
        <path id="Path_21" data-name="Path 21" d="M342.6,106.911a18.75,18.75,0,1,0,0,26.517A18.742,18.742,0,0,0,342.6,106.911Zm-5.3,21.214a11.25,11.25,0,1,1,0-15.91A11.265,11.265,0,0,1,337.3,128.124Z" transform="translate(-310.603 -101.415)" fill="#ffc60b"/>
      </g>
    </g>
    <g id="Group_10" data-name="Group 10" transform="translate(36.008 0)">
      <g id="Group_9" data-name="Group 9">
        <path id="Path_22" data-name="Path 22" d="M250.913,1.1A3.737,3.737,0,0,0,248.127,0a166.59,166.59,0,0,0-45.034,9.324c-19.23,6.79-35.259,16.511-47.641,28.894-2.775,2.775-5.475,5.717-8.058,8.774-12.243-7.207-22.054-4.947-28.256-1.628-14.28,7.643-23.12,28.394-23.12,43.236a3.751,3.751,0,0,0,6.4,2.652,23.873,23.873,0,0,1,19.855-6.661l1.313,1.313a131.9,131.9,0,0,0-6.194,18.213,10.615,10.615,0,0,0,.454,6.514,35.512,35.512,0,0,0-10.127,7.14c-9.653,9.653-11.613,33.179-11.692,34.175a3.75,3.75,0,0,0,3.738,4.045q.147,0,.3-.012c1-.078,24.523-2.039,34.176-11.691a35.514,35.514,0,0,0,7.139-10.125,10.59,10.59,0,0,0,6.518.451,131.915,131.915,0,0,0,18.211-6.193l1.313,1.313a23.874,23.874,0,0,1-6.661,19.854,3.75,3.75,0,0,0,2.652,6.4c14.843,0,35.593-8.839,43.236-23.12,3.319-6.2,5.579-16.012-1.628-28.256,3.055-2.582,6-5.282,8.774-8.058,12.383-12.383,22.1-28.411,28.893-47.64a166.588,166.588,0,0,0,9.324-45.036A3.75,3.75,0,0,0,250.913,1.1ZM104.4,80.536c2.33-11.274,9.1-23.645,18.276-28.558,6.135-3.283,12.84-2.961,19.97.942A151.626,151.626,0,0,0,126.892,78.6a3.954,3.954,0,0,0-1.985-1.166A32.052,32.052,0,0,0,104.4,80.536Zm24.534,58.451c-5.156,5.156-17.252,7.876-24.9,8.986,1.111-7.646,3.831-19.741,8.987-24.9a27.024,27.024,0,0,1,9.6-6.31l12.62,12.62A27.019,27.019,0,0,1,128.936,138.987Zm17.1-11.635a3.519,3.519,0,0,1-3.277-1.063l-7.345-7.344-9.685-9.685a3.521,3.521,0,0,1-1.066-3.277,121.763,121.763,0,0,1,4.682-14.322l31.011,31.011A121.686,121.686,0,0,1,146.033,127.352Zm54,1.983c-4.913,9.18-17.284,15.946-28.557,18.275,3.594-6.764,4.387-15.374,3.074-20.6a3.916,3.916,0,0,0-1.14-1.894,151.68,151.68,0,0,0,25.682-15.756C203,116.5,203.317,123.2,200.035,129.335Zm8.455-38.078a136.115,136.115,0,0,1-10.815,9.7,144.076,144.076,0,0,1-29.894,18.532L132.522,84.234A144.053,144.053,0,0,1,151.053,54.34a136.088,136.088,0,0,1,9.7-10.816c11.109-11.11,25.447-19.952,42.627-26.316l31.422,31.422C228.442,65.809,219.6,80.147,208.489,91.257ZM237.5,40.72,211.293,14.509a168.6,168.6,0,0,1,32.9-6.693A168.625,168.625,0,0,1,237.5,40.72Z" transform="translate(-96.018 0)" fill="#ffc60b"/>
      </g>
    </g>
    <g id="Group_12" data-name="Group 12" transform="translate(73.134 153.796)">
      <g id="Group_11" data-name="Group 11">
        <path id="Path_23" data-name="Path 23" d="M212.027,411.219a3.751,3.751,0,0,0-5.3,0l-10.605,10.609a3.75,3.75,0,1,0,5.3,5.3l10.605-10.609A3.75,3.75,0,0,0,212.027,411.219Z" transform="translate(-195.021 -410.121)" fill="#ffc60b"/>
      </g>
    </g>
    <g id="Group_14" data-name="Group 14" transform="translate(20.098 100.764)">
      <g id="Group_13" data-name="Group 13">
        <path id="Path_24" data-name="Path 24" d="M70.6,269.8a3.75,3.75,0,0,0-5.3,0L54.691,280.4a3.75,3.75,0,1,0,5.3,5.3L70.6,275.1A3.75,3.75,0,0,0,70.6,269.8Z" transform="translate(-53.592 -268.701)" fill="#ffc60b"/>
      </g>
    </g>
    <g id="Group_16" data-name="Group 16" transform="translate(31.82 159.103)">
      <g id="Group_15" data-name="Group 15">
        <path id="Path_25" data-name="Path 25" d="M116.656,425.369a3.75,3.75,0,0,0-5.3,0l-25.4,25.4a3.75,3.75,0,1,0,5.3,5.3l25.4-25.4A3.75,3.75,0,0,0,116.656,425.369Z" transform="translate(-84.851 -424.271)" fill="#ffc60b"/>
      </g>
    </g>
    <g id="Group_18" data-name="Group 18" transform="translate(1.82 159.103)">
      <g id="Group_17" data-name="Group 17">
        <path id="Path_26" data-name="Path 26" d="M36.656,425.369a3.75,3.75,0,0,0-5.3,0l-25.4,25.4a3.75,3.75,0,1,0,5.3,5.3l25.4-25.4A3.75,3.75,0,0,0,36.656,425.369Z" transform="translate(-4.851 -424.271)" fill="#ffc60b"/>
      </g>
    </g>
    <g id="Group_20" data-name="Group 20" transform="translate(0.001 127.28)">
      <g id="Group_19" data-name="Group 19">
        <path id="Path_27" data-name="Path 27" d="M31.8,340.508a3.751,3.751,0,0,0-5.3,0l-25.4,25.4a3.75,3.75,0,1,0,5.3,5.3l25.4-25.4A3.75,3.75,0,0,0,31.8,340.508Z" transform="translate(-0.001 -339.41)" fill="#ffc60b"/>
      </g>
    </g>
    <g id="Group_22" data-name="Group 22" transform="translate(104.953 74.247)">
      <g id="Group_21" data-name="Group 21">
        <path id="Path_28" data-name="Path 28" d="M291.576,199.089a3.751,3.751,0,0,0-5.3,0l-5.3,5.3a3.75,3.75,0,1,0,5.3,5.3l5.3-5.3A3.751,3.751,0,0,0,291.576,199.089Z" transform="translate(-279.871 -197.99)" fill="#ffc60b"/>
      </g>
    </g>
  </g>
</svg>
