<svg xmlns="http://www.w3.org/2000/svg" width="214.004" height="214.003" viewBox="0 0 214.004 214.003">
  <path id="Subtraction_1" data-name="Subtraction 1" d="M-1820.159,79.23a31.885,31.885,0,0,1-21.817-8.6L-1919.6-1.749a31.8,31.8,0,0,1-7.395-10.334,31.893,31.893,0,0,1-2.762-11.953,31.9,31.9,0,0,1,1.922-12.116,31.8,31.8,0,0,1,6.656-10.825l72.382-77.621a31.763,31.763,0,0,1,10.857-7.622,31.89,31.89,0,0,1,12.554-2.554,31.89,31.89,0,0,1,21.817,8.6l77.62,72.382a31.8,31.8,0,0,1,7.394,10.334,31.894,31.894,0,0,1,2.762,11.953,31.9,31.9,0,0,1-1.922,12.116,31.8,31.8,0,0,1-6.656,10.825l-72.382,77.62a31.765,31.765,0,0,1-10.857,7.622A31.9,31.9,0,0,1-1820.159,79.23Zm-4.754-178.377a18.942,18.942,0,0,0-7.454,1.517,18.862,18.862,0,0,0-6.446,4.526l-50.229,53.864a18.88,18.88,0,0,0-3.952,6.427,18.936,18.936,0,0,0-1.141,7.194,18.934,18.934,0,0,0,1.64,7.1,18.88,18.88,0,0,0,4.39,6.136l53.432,49.826a18.935,18.935,0,0,0,12.954,5.1,18.935,18.935,0,0,0,7.454-1.516,18.854,18.854,0,0,0,6.446-4.526l50.229-53.863a18.882,18.882,0,0,0,3.952-6.428,18.936,18.936,0,0,0,1.141-7.194,18.936,18.936,0,0,0-1.64-7.1,18.88,18.88,0,0,0-4.39-6.136l-53.432-49.826A18.931,18.931,0,0,0-1824.913-99.146Z" transform="translate(1929.773 134.773)" fill="#531f90"/>
</svg>
